<svg width="1280" height="832" viewBox="0 0 1280 832" fill="none" xmlns="http://www.w3.org/2000/svg">
<g clip-path="url(#clip0_1_3)">
<rect width="1280" height="832" fill="white"/>
<path d="M1063.71 90.8573C1070.83 79.0849 1079.26 66.5146 1092.47 62.6704C1107.77 58.2188 1123.48 67.0625 1136.81 75.7892C1176.67 101.887 1215.06 130.17 1251.8 160.508L1251.76 160.965L1165.95 155.048C1145.29 153.623 1123.92 152.001 1105.65 142.225C1098.72 138.517 1091.97 133.56 1084.12 133.215C1074.36 132.786 1065.85 139.6 1059.17 146.719C1019.62 188.83 1008.18 253.227 963.814 290.226C991.789 221.233 1025.19 154.568 1063.71 90.8573Z" fill="#F2F2F2"/>
<path d="M830 431.982H833.916C868.007 387.692 900.082 341.948 930.144 294.75C951.138 261.821 971.089 228.254 989.998 194.049C991.112 192.036 992.223 190.019 993.33 187.998C1001.16 173.724 1008.8 159.353 1016.26 144.887C1022.86 132.079 1029.32 119.197 1035.63 106.241C1037.43 102.538 1039.18 98.8244 1040.93 95.094C1045.04 86.3354 1049.07 77.525 1053.4 68.882C1057.77 60.1483 1062.99 51.0527 1070.41 44.4908C1071.37 43.6355 1072.36 42.83 1073.4 42.0774C1074.58 41.2156 1075.81 40.4372 1077.09 39.7477C1077.22 39.6735 1077.35 39.6083 1077.48 39.5342C1080.62 37.8611 1084.07 36.8651 1087.62 36.6106C1095 36.1279 1101.8 39.1812 1108.21 42.5038C1119.01 48.1374 1129.65 54.0959 1140.12 60.3791C1174.93 81.2951 1207.77 105.314 1238.25 132.144L1238.48 132.348C1278.23 167.249 1313.75 206.68 1344.33 249.837C1345.26 251.174 1347.47 249.893 1346.52 248.558C1342.81 243.296 1339.02 238.092 1335.16 232.948C1306.31 194.568 1273.49 159.35 1237.23 127.884C1233.17 124.357 1229.07 120.88 1224.92 117.452C1204.56 100.591 1183.23 84.9285 1161.04 70.5449C1154.25 66.1366 1147.38 61.861 1140.43 57.7183C1135.82 54.9619 1131.19 52.261 1126.52 49.6155C1120.62 46.2745 1114.69 42.9705 1108.66 39.8794C1102.75 36.8349 1096.47 34.1063 1089.71 34.0047C1084.85 33.9158 1080.04 35.0858 1075.76 37.4014C1075.63 37.4756 1075.49 37.5408 1075.36 37.6239C1072.74 39.089 1070.31 40.8653 1068.12 42.9142C1058.31 52.0002 1051.75 66.2563 1046.64 77.1989C1044.07 82.7213 1041.47 88.2194 1038.84 93.6933C1028.9 114.492 1018.57 135.106 1007.86 155.534C1002.13 166.439 996.294 177.298 990.351 188.111C989.441 189.791 988.514 191.47 987.585 193.141C966.109 231.945 943.283 269.967 919.109 307.207C890.402 351.421 861.89 391.015 830 431.982Z" fill="#E4E4E4"/>
<path d="M680 453H1280V454H680V453Z" fill="#CBCBCB"/>
<path d="M1059.81 469.946H1116.95V471.224H1059.81V469.946Z" fill="#CBCBCB"/>
<path d="M915.305 415.597V378.405C915.305 378.405 900.811 404.772 915.305 415.597Z" fill="#F1F1F1"/>
<path d="M1085.01 417.914L1112.41 392.762C1112.41 392.762 1083.18 399.917 1085.01 417.914Z" fill="#F1F1F1"/>
<path d="M1251.01 453.248V407C1251.01 407 1232.99 439.788 1251.01 453.248Z" fill="#F1F1F1"/>
<path d="M1249.9 453.24L1283.97 421.964C1283.97 421.964 1247.62 430.86 1249.9 453.24Z" fill="#F1F1F1"/>
<path d="M1169.76 59.3255L1161.58 52.7834C1167.94 52.0801 1170.55 55.5478 1171.62 58.2911C1176.58 56.2299 1181.99 58.9304 1181.99 58.9304L1165.62 64.8722C1166.45 62.6668 1167.89 60.7425 1169.77 59.3249L1169.76 59.3255Z" fill="#090814"/>
<path d="M961.791 103.408L953.611 96.8662C959.965 96.163 962.576 99.6306 963.648 102.374C968.612 100.313 974.017 103.013 974.017 103.013L957.65 108.955C958.476 106.75 959.913 104.825 961.794 103.408L961.791 103.408Z" fill="#090814"/>
<path d="M1187.66 181.435L1179.48 174.893C1185.84 174.19 1188.45 177.657 1189.52 180.401C1194.49 178.34 1199.89 181.04 1199.89 181.04L1183.52 186.982C1184.35 184.776 1185.79 182.852 1187.67 181.434L1187.66 181.435Z" fill="#090814"/>
<path d="M253.343 759.936H115.182C115.182 759.936 112.382 718.861 128.951 718.395C145.52 717.929 143.651 736.595 164.425 710.927C185.199 685.259 210.401 686.656 213.668 701.827C216.935 716.998 207.368 729.132 224.868 725.398C242.368 721.664 267.579 731.464 253.343 759.936Z" fill="#D6D6E3"/>
<path d="M181.93 759.946L181.464 759.927C182.552 732.884 188.215 715.508 192.775 705.694C197.726 695.038 202.497 690.724 202.544 690.681L202.854 691.03C202.807 691.072 198.092 695.343 193.181 705.93C188.646 715.7 183.013 733.006 181.93 759.946Z" fill="#F2F2F2"/>
<path d="M231.935 760.004L231.487 759.874C234.962 748.413 241.225 737.992 249.716 729.546L250.03 729.891C241.602 738.278 235.385 748.625 231.935 760.004Z" fill="#F2F2F2"/>
<path d="M136.208 759.315L135.702 759.253C137.707 746.584 134.084 736.755 130.692 730.741C127.02 724.228 122.83 720.672 122.788 720.638L123.142 720.315C123.184 720.351 127.439 723.962 131.151 730.544C134.575 736.613 138.231 746.533 136.208 759.315Z" fill="#F2F2F2"/>
<path d="M272.093 760.562H100.28L100.24 759.98C100.14 758.532 97.9502 724.38 109.015 712.195C110.113 710.908 111.468 709.864 112.994 709.132C114.519 708.4 116.181 707.996 117.872 707.945C125.085 707.74 129.618 710.445 133.272 712.61C140.163 716.698 144.716 719.399 161.272 698.941C179.203 676.779 198.55 672.011 209.672 674.662C216.858 676.375 221.811 681.218 223.26 687.948C224.633 694.32 224.195 700.308 223.844 705.119C223.468 710.267 223.171 714.333 225.285 716.176C227.05 717.714 230.573 717.853 236.371 716.616C248.165 714.1 264.62 716.253 272.88 726.925C277.324 732.666 280.825 743.103 272.268 760.217L272.093 760.562ZM101.452 759.313H271.32C277.696 746.376 277.896 735.447 271.891 727.689C264.314 717.899 248.417 715.322 236.63 717.837C230.33 719.181 226.577 718.959 224.463 717.117C221.878 714.865 222.195 710.524 222.596 705.028C222.942 700.296 223.372 694.408 222.037 688.21C220.693 681.969 216.079 677.474 209.38 675.877C198.613 673.308 179.807 678.016 162.241 699.726C145.011 721.026 139.82 717.944 132.641 713.684C128.941 711.484 124.741 708.999 117.911 709.193C116.389 709.242 114.893 709.609 113.521 710.27C112.148 710.932 110.93 711.873 109.943 713.034C99.9952 723.985 101.208 754.696 101.452 759.313Z" fill="#CFCCE0"/>
<path d="M308 760H68V762H308V760Z" fill="#3F3D56"/>
<path d="M670 760H1150V762H670V760Z" fill="#3F3D56"/>
<path d="M557 760H357V762H557V760Z" fill="#3F3D56"/>
<path d="M317.74 493.035C317.799 495.831 317.412 498.617 316.595 501.291C316.567 501.388 316.533 501.486 316.498 501.583H299.659C299.899 500.399 300.281 499.248 300.797 498.155C302.198 495.184 304.486 492.642 306.745 490.116C309.857 486.637 312.894 483.186 313.372 478.662C314.605 480.54 315.59 482.569 316.3 484.7C315.43 485.022 314.632 485.511 313.95 486.14C313.761 486.317 313.561 486.574 313.658 486.822C313.75 487.027 314 487.095 314.224 487.142C314.762 487.245 315.3 487.347 315.837 487.445C316.261 487.531 316.69 487.611 317.119 487.691C317.495 489.449 317.701 491.24 317.734 493.038L317.74 493.035Z" fill="#E6E6E6"/>
<path d="M331.884 491.184C329.185 492.821 327.469 495.36 326.067 498.199C324.847 498.477 323.722 499.068 322.801 499.913C322.606 500.091 322.406 500.347 322.509 500.596C322.595 500.8 322.851 500.868 323.076 500.916C323.608 501.019 324.151 501.12 324.683 501.218C324.631 501.339 324.58 501.464 324.529 501.584H306.683C307.493 500.493 308.39 499.469 309.365 498.522C309.577 498.31 309.794 498.113 310.018 497.908C312.292 495.855 314.903 494.208 317.737 493.04C322.203 491.173 327.087 490.532 331.884 491.184Z" fill="#E6E6E6"/>
<path d="M309.657 501.582H293.767C293.68 500.311 293.687 499.036 293.789 497.766C294.133 493.835 295.327 490.026 297.287 486.601C299.247 483.175 301.928 480.215 305.144 477.924C304.32 480.858 304.743 483.769 305.601 486.694C305.481 486.734 305.361 486.768 305.252 486.814C304.382 487.136 303.583 487.625 302.901 488.254C302.713 488.431 302.513 488.688 302.61 488.936C302.696 489.141 302.951 489.209 303.176 489.256C303.714 489.359 304.251 489.461 304.783 489.559C305.212 489.645 305.642 489.725 306.071 489.81C306.271 489.844 306.471 489.885 306.671 489.924C306.7 489.992 306.717 490.056 306.745 490.119C307.851 492.842 308.727 495.653 309.365 498.523C309.493 499.235 309.58 499.954 309.628 500.677C309.645 500.977 309.657 501.279 309.657 501.582Z" fill="#E6E6E6"/>
<path d="M123.146 486.764C123.249 491.609 122.58 496.441 121.165 501.077C121.115 501.246 121.056 501.414 120.996 501.582H91.798C92.2154 499.529 92.8781 497.534 93.7716 495.639C96.2015 490.488 100.168 486.081 104.087 481.702C109.484 475.67 114.748 469.687 115.581 461.842C117.72 465.098 119.426 468.618 120.659 472.312C119.15 472.87 117.765 473.719 116.583 474.809C116.255 475.116 115.908 475.559 116.077 475.988C116.236 476.345 116.672 476.465 117.059 476.542C117.991 476.721 118.923 476.899 119.855 477.067C120.589 477.216 121.333 477.354 122.077 477.493C122.731 480.542 123.089 483.647 123.148 486.764L123.146 486.764Z" fill="#E6E6E6"/>
<path d="M147.672 483.557C142.991 486.4 140.016 490.797 137.586 495.72C135.472 496.202 133.52 497.226 131.924 498.692C131.586 498.999 131.24 499.442 131.418 499.871C131.567 500.228 132.013 500.349 132.4 500.426C133.322 500.604 134.264 500.782 135.186 500.95C135.097 501.155 135.008 501.376 134.918 501.584H103.976C105.381 499.692 106.936 497.917 108.628 496.275C108.994 495.909 109.371 495.562 109.758 495.205C113.703 491.645 118.232 488.79 123.147 486.766C130.89 483.533 139.357 482.425 147.672 483.557Z" fill="#E6E6E6"/>
<path d="M109.133 501.581H81.5853C81.4348 499.377 81.448 497.165 81.6249 494.963C82.2215 488.148 84.2903 481.544 87.6888 475.605C91.0873 469.666 95.7347 464.533 101.311 460.561C99.8822 465.642 100.617 470.694 102.104 475.766C101.899 475.834 101.687 475.895 101.499 475.971C99.9903 476.529 98.6055 477.377 97.4229 478.467C97.0957 478.774 96.7487 479.217 96.9174 479.646C97.0663 480.002 97.5124 480.123 97.8991 480.2C98.8316 480.378 99.7633 480.557 100.686 480.725C101.429 480.874 102.173 481.012 102.917 481.161C103.264 481.22 103.611 481.29 103.958 481.359C104.008 481.478 104.037 481.587 104.087 481.696C105.832 486.5 107.736 491.344 108.629 496.267C108.85 497.502 109.002 498.749 109.085 500.001C109.115 500.531 109.133 501.057 109.133 501.581Z" fill="#E6E6E6"/>
<path d="M177.442 137.514C169.836 124.95 160.823 111.534 146.709 107.431C130.363 102.68 113.572 112.119 99.3295 121.432C56.736 149.286 15.7176 179.471 -23.5378 211.849L-23.4947 212.337L68.1905 206.022C90.2713 204.501 113.111 202.77 132.624 192.337C140.029 188.379 147.247 183.089 155.638 182.721C166.062 182.263 175.152 189.535 182.295 197.133C224.55 242.076 236.778 310.804 284.183 350.291C254.291 276.658 218.599 205.509 177.442 137.514Z" fill="#F2F2F2"/>
<path d="M427.167 501.582H422.982C386.556 454.314 352.282 405.493 320.161 355.121C297.728 319.977 276.41 284.152 256.205 247.647C255.015 245.498 253.828 243.345 252.645 241.189C244.284 225.954 236.118 210.617 228.148 195.178C221.089 181.509 214.19 167.76 207.45 153.932C205.526 149.98 203.651 146.017 201.787 142.036C197.394 132.688 193.089 123.285 188.459 114.061C183.787 104.74 178.212 95.0327 170.281 88.0294C169.261 87.1166 168.195 86.2569 167.088 85.4537C165.832 84.534 164.513 83.7032 163.14 82.9673C163.004 82.8882 162.863 82.8186 162.724 82.7394C159.372 80.9538 155.683 79.8908 151.894 79.6192C144.01 79.104 136.74 82.3628 129.897 85.9088C118.354 91.9213 106.986 98.2805 95.7923 104.986C58.6026 127.309 23.5091 152.944 -9.05954 181.578L-9.30752 181.795C-51.7732 219.044 -89.7299 261.127 -122.403 307.187C-123.405 308.613 -125.765 307.246 -124.753 305.822C-120.787 300.206 -116.737 294.652 -112.605 289.161C-81.7866 248.201 -46.7125 210.614 -7.96926 177.031C-3.6355 173.267 0.747879 169.556 5.18092 165.898C26.943 147.903 49.7349 131.187 73.4411 115.836C80.7004 111.131 88.0425 106.568 95.4672 102.147C100.386 99.2049 105.338 96.3223 110.323 93.4989C116.63 89.9331 122.968 86.4069 129.414 83.1079C135.731 79.8587 142.435 76.9465 149.655 76.8381C154.856 76.7432 159.994 77.9919 164.57 80.4632C164.707 80.5424 164.858 80.612 164.997 80.7007C167.793 82.2643 170.391 84.1601 172.732 86.3468C183.214 96.0439 190.226 111.259 195.68 122.937C198.427 128.831 201.207 134.699 204.02 140.541C214.641 162.739 225.676 184.739 237.124 206.541C243.243 218.18 249.478 229.769 255.828 241.309C256.8 243.102 257.791 244.895 258.783 246.678C281.732 288.092 306.121 328.671 331.952 368.415C362.626 415.603 393.092 457.86 427.167 501.582Z" fill="#E4E4E4"/>
<path d="M301.216 297.742L337.815 284.369L355.986 277.73C361.904 275.568 367.808 273.107 373.926 271.559C379.243 270.041 384.888 270.113 390.164 271.764C394.869 273.503 399.177 276.17 402.829 279.605C406.561 283.038 410.033 286.742 413.218 290.686C417.174 295.435 421.074 300.234 424.987 305.015C441.146 324.754 457.2 344.578 473.148 364.488C489.096 384.398 504.937 404.393 520.671 424.471C536.444 444.599 552.108 464.812 567.664 485.108C569.57 487.595 571.474 490.082 573.376 492.571C574.428 493.946 576.797 492.591 575.732 491.197C560.061 470.696 544.28 450.28 528.391 429.947C512.463 409.566 496.424 389.271 480.276 369.063C464.128 348.854 447.871 328.734 431.505 308.701C427.428 303.711 423.344 298.726 419.253 293.746C415.803 289.545 412.39 285.299 408.606 281.39C401.658 274.213 392.979 267.871 382.589 267.699C376.48 267.598 370.566 269.534 364.896 271.588C358.777 273.799 352.673 276.051 346.563 278.284L309.707 291.749L300.493 295.115C298.858 295.712 299.564 298.346 301.218 297.742H301.216Z" fill="#E4E4E4"/>
<path d="M401.451 297.875C397.848 293.495 393.953 288.909 388.564 287.129L383.533 287.327C421.83 354.921 473.554 413.984 535.529 460.891L401.451 297.875Z" fill="#F2F2F2"/>
<path d="M180.613 436.8L179.93 437.619L180.301 437.743L180.613 436.8Z" fill="#090814"/>
<path d="M437.042 501.02H55.7999V503.001H437.042V501.02Z" fill="#CBCBCB"/>
<path d="M387.348 759.774C387.348 759.774 393.245 691.069 432.545 654.109C449.104 638.714 460.226 618.366 464.242 596.116C466.055 585.527 466.892 574.794 466.741 564.052" stroke="#535461" stroke-width="2" stroke-miterlimit="10"/>
<path d="M491.355 540.722C488.403 548.269 466.185 564.833 466.185 564.833C466.185 564.833 461.063 537.601 464.01 530.044C465.473 526.485 468.276 523.642 471.814 522.129C475.352 520.615 479.343 520.551 482.928 521.951C486.512 523.351 489.404 526.102 490.98 529.613C492.556 533.124 492.691 537.113 491.355 540.722Z" fill="#6C63FF"/>
<path d="M387.641 760.187C387.641 760.187 365.192 694.98 386.11 645.306C395.009 624.52 396.932 601.411 391.59 579.441C388.972 569.032 385.403 558.886 380.928 549.131" stroke="#535461" stroke-width="2" stroke-miterlimit="10"/>
<path d="M497.616 591.322C490.994 596.082 463.383 597.893 463.383 597.893C463.383 597.893 473.867 572.22 480.455 567.508C482.016 566.33 483.796 565.475 485.691 564.995C487.586 564.514 489.559 564.416 491.492 564.708C493.425 565 495.281 565.675 496.95 566.694C498.619 567.713 500.067 569.055 501.21 570.641C502.354 572.228 503.168 574.027 503.607 575.932C504.045 577.838 504.098 579.811 503.764 581.738C503.429 583.664 502.712 585.504 501.657 587.15C500.601 588.796 499.227 590.214 497.616 591.322Z" fill="#6C63FF"/>
<path d="M468.771 662.402C460.703 663.173 435.911 650.791 435.911 650.791C435.911 650.791 457.905 633.955 465.992 633.176C467.925 632.967 469.88 633.143 471.744 633.695C473.608 634.248 475.344 635.165 476.851 636.393C478.358 637.622 479.605 639.137 480.522 640.852C481.438 642.566 482.005 644.446 482.189 646.381C482.373 648.316 482.171 650.269 481.594 652.126C481.017 653.982 480.077 655.706 478.829 657.196C477.581 658.687 476.049 659.914 474.322 660.808C472.596 661.702 470.709 662.243 468.771 662.402Z" fill="#6C63FF"/>
<path d="M434.769 711.301C426.943 713.423 400.437 705.352 400.437 705.352C400.437 705.352 419.288 685.027 427.105 682.909C430.866 681.888 434.879 682.402 438.261 684.339C441.643 686.276 444.117 689.477 445.138 693.238C446.16 696.999 445.646 701.011 443.709 704.393C441.772 707.775 438.571 710.249 434.81 711.271L434.769 711.301Z" fill="#6C63FF"/>
<path d="M434.099 588.145C437.458 595.526 460.612 610.822 460.612 610.822C460.612 610.822 464.215 583.343 460.851 575.975C460.084 574.171 458.963 572.539 457.555 571.176C456.147 569.812 454.48 568.744 452.653 568.035C450.826 567.326 448.875 566.99 446.916 567.047C444.956 567.104 443.028 567.553 441.245 568.367C439.462 569.181 437.86 570.344 436.534 571.787C435.208 573.23 434.184 574.924 433.523 576.77C432.862 578.615 432.577 580.574 432.685 582.531C432.793 584.488 433.292 586.403 434.152 588.165L434.099 588.145Z" fill="#6C63FF"/>
<path d="M395.097 645.812C400.513 651.848 427.149 659.529 427.149 659.529C427.149 659.529 422.377 632.225 416.943 626.197C414.303 623.461 410.704 621.855 406.903 621.719C403.103 621.584 399.398 622.928 396.569 625.469C393.74 628.01 392.008 631.55 391.736 635.343C391.465 639.136 392.676 642.886 395.115 645.804L395.097 645.812Z" fill="#6C63FF"/>
<path d="M364.932 707.041C369.237 713.87 394.195 725.967 394.195 725.967C394.195 725.967 394.088 698.259 389.77 691.402C388.767 689.722 387.438 688.258 385.861 687.099C384.284 685.939 382.492 685.106 380.588 684.65C378.685 684.193 376.709 684.122 374.778 684.44C372.847 684.758 370.999 685.459 369.342 686.502C367.686 687.545 366.255 688.908 365.133 690.512C364.011 692.116 363.222 693.929 362.811 695.842C362.4 697.756 362.376 699.733 362.74 701.656C363.104 703.579 363.849 705.41 364.932 707.041Z" fill="#6C63FF"/>
<path opacity="0.25" d="M491.355 540.722C488.403 548.269 466.185 564.833 466.185 564.833C466.185 564.833 461.063 537.601 464.01 530.044C465.473 526.485 468.276 523.642 471.814 522.129C475.352 520.615 479.343 520.551 482.928 521.951C486.512 523.351 489.404 526.102 490.98 529.613C492.556 533.124 492.691 537.113 491.355 540.722Z" fill="black"/>
<path opacity="0.25" d="M497.616 591.322C490.994 596.082 463.383 597.893 463.383 597.893C463.383 597.893 473.867 572.22 480.455 567.508C482.016 566.33 483.796 565.475 485.691 564.995C487.586 564.514 489.559 564.416 491.492 564.708C493.425 565 495.281 565.675 496.95 566.694C498.619 567.713 500.067 569.055 501.21 570.641C502.354 572.228 503.168 574.027 503.607 575.932C504.045 577.838 504.098 579.811 503.764 581.738C503.429 583.664 502.712 585.504 501.657 587.15C500.601 588.796 499.227 590.214 497.616 591.322Z" fill="black"/>
<path opacity="0.25" d="M468.771 662.402C460.703 663.173 435.911 650.791 435.911 650.791C435.911 650.791 457.905 633.955 465.992 633.176C467.925 632.967 469.88 633.143 471.744 633.695C473.608 634.248 475.344 635.165 476.851 636.393C478.358 637.622 479.605 639.137 480.522 640.852C481.438 642.566 482.005 644.446 482.189 646.381C482.373 648.316 482.171 650.269 481.594 652.126C481.017 653.982 480.077 655.706 478.829 657.196C477.581 658.687 476.049 659.914 474.322 660.808C472.596 661.702 470.709 662.243 468.771 662.402Z" fill="black"/>
<path opacity="0.25" d="M434.769 711.301C426.943 713.423 400.437 705.352 400.437 705.352C400.437 705.352 419.288 685.027 427.105 682.909C430.866 681.888 434.879 682.402 438.261 684.339C441.643 686.276 444.117 689.477 445.138 693.238C446.16 696.999 445.646 701.011 443.709 704.393C441.772 707.775 438.571 710.249 434.81 711.271L434.769 711.301Z" fill="black"/>
<path opacity="0.25" d="M434.099 588.145C437.458 595.526 460.612 610.822 460.612 610.822C460.612 610.822 464.215 583.343 460.851 575.975C460.084 574.171 458.963 572.539 457.555 571.176C456.147 569.812 454.48 568.744 452.653 568.035C450.826 567.326 448.875 566.99 446.916 567.047C444.956 567.104 443.028 567.553 441.245 568.367C439.462 569.181 437.86 570.344 436.534 571.787C435.208 573.23 434.184 574.924 433.523 576.77C432.862 578.615 432.577 580.574 432.685 582.531C432.793 584.488 433.292 586.403 434.152 588.165L434.099 588.145Z" fill="black"/>
<path opacity="0.25" d="M395.097 645.812C400.513 651.848 427.149 659.529 427.149 659.529C427.149 659.529 422.377 632.225 416.943 626.197C414.303 623.461 410.704 621.855 406.903 621.719C403.103 621.584 399.398 622.928 396.569 625.469C393.74 628.01 392.008 631.55 391.736 635.343C391.465 639.136 392.676 642.886 395.115 645.804L395.097 645.812Z" fill="black"/>
<path opacity="0.25" d="M364.932 707.041C369.237 713.87 394.195 725.967 394.195 725.967C394.195 725.967 394.088 698.259 389.77 691.402C388.767 689.722 387.438 688.258 385.861 687.099C384.284 685.939 382.492 685.106 380.588 684.65C378.685 684.193 376.709 684.122 374.778 684.44C372.847 684.758 370.999 685.459 369.342 686.502C367.686 687.545 366.255 688.908 365.133 690.512C364.011 692.116 363.222 693.929 362.811 695.842C362.4 697.756 362.376 699.733 362.74 701.656C363.104 703.579 363.849 705.41 364.932 707.041Z" fill="black"/>
<path d="M393.924 517.738C394.318 525.824 380.683 549.99 380.683 549.99C380.683 549.99 364.965 527.167 364.598 519.068C364.425 515.177 365.805 511.377 368.434 508.504C371.063 505.631 374.725 503.92 378.616 503.747C382.506 503.574 386.306 504.954 389.179 507.583C392.053 510.212 393.764 513.874 393.937 517.765L393.924 517.738Z" fill="#6C63FF"/>
<path d="M382.682 740.815C382.682 740.815 327.682 699.235 317.292 646.345C313.079 624.131 301.777 603.882 285.082 588.635C277.096 581.462 268.47 575.036 259.312 569.435" stroke="#535461" stroke-width="2" stroke-miterlimit="10"/>
<path d="M252.582 536.115C257.402 542.635 259.582 570.265 259.582 570.265C259.582 570.265 233.812 560.115 228.982 553.605C226.663 550.475 225.682 546.552 226.255 542.699C226.828 538.847 228.908 535.379 232.037 533.06C235.167 530.74 239.089 529.759 242.942 530.332C246.795 530.905 250.263 532.985 252.582 536.115Z" fill="#6C63FF"/>
<path d="M298.802 557.795C299.302 565.885 286.132 590.265 286.132 590.265C286.132 590.265 270.002 567.725 269.492 559.635C269.298 555.778 270.632 552 273.204 549.12C275.776 546.239 279.38 544.488 283.234 544.246C287.088 544.004 290.882 545.29 293.794 547.826C296.706 550.362 298.502 553.944 298.792 557.795L298.802 557.795Z" fill="#6C63FF"/>
<path d="M343.602 620.115C339.962 627.355 316.272 641.755 316.272 641.755C316.272 641.755 313.742 614.155 317.382 606.915C319.174 603.51 322.231 600.945 325.895 599.771C329.559 598.598 333.537 598.909 336.974 600.639C340.411 602.369 343.03 605.38 344.27 609.022C345.51 612.664 345.27 616.647 343.602 620.115Z" fill="#6C63FF"/>
<path d="M366.892 674.875C364.522 682.625 343.612 700.815 343.612 700.815C343.612 700.815 336.442 674.045 338.812 666.285C339.951 662.561 342.523 659.443 345.961 657.615C349.4 655.788 353.424 655.401 357.147 656.54C360.871 657.679 363.989 660.251 365.817 663.689C367.645 667.128 368.031 671.151 366.892 674.875Z" fill="#6C63FF"/>
<path d="M262.292 609.865C270.292 610.945 295.582 599.525 295.582 599.525C295.582 599.525 274.242 581.845 266.202 580.765C262.343 580.246 258.436 581.282 255.341 583.644C252.246 586.006 250.216 589.501 249.697 593.36C249.179 597.219 250.214 601.125 252.576 604.221C254.938 607.316 258.433 609.346 262.292 609.865Z" fill="#6C63FF"/>
<path d="M290.342 673.575C298.342 672.205 319.012 653.755 319.012 653.755C319.012 653.755 293.352 643.275 285.362 644.645C283.449 644.959 281.617 645.648 279.972 646.673C278.327 647.699 276.901 649.04 275.777 650.619C274.653 652.198 273.853 653.984 273.423 655.875C272.993 657.765 272.941 659.721 273.271 661.632C273.601 663.542 274.307 665.368 275.346 667.004C276.386 668.64 277.739 670.054 279.328 671.165C280.917 672.275 282.71 673.06 284.604 673.473C286.498 673.887 288.455 673.922 290.362 673.575L290.342 673.575Z" fill="#6C63FF"/>
<path d="M326.092 731.765C334.202 731.765 357.702 717.075 357.702 717.075C357.702 717.075 334.192 702.405 326.082 702.405C322.189 702.405 318.455 703.951 315.702 706.705C312.949 709.458 311.402 713.191 311.402 717.085C311.402 720.978 312.949 724.712 315.702 727.465C318.455 730.218 322.189 731.765 326.082 731.765L326.092 731.765Z" fill="#6C63FF"/>
<path d="M1066 451.553H1176V574.553H1066V451.553Z" fill="#CCCCCC"/>
<path d="M1119.55 724.785L1121.44 750.62C1121.52 751.789 1121.36 752.963 1120.95 754.064C1120.55 755.164 1119.91 756.165 1119.09 756.999C1118.26 757.833 1117.27 758.482 1116.18 758.901C1115.08 759.32 1113.91 759.5 1112.74 759.429L1099.47 758.625C1098.85 758.588 1098.26 758.416 1097.71 758.121C1097.17 757.826 1096.7 757.415 1096.34 756.918C1095.98 756.422 1095.73 755.851 1095.61 755.246C1095.49 754.642 1095.5 754.019 1095.65 753.421L1103.02 723.958L1119.55 724.785Z" fill="#E6E6E6"/>
<path d="M1008.55 740.062C992.936 743.715 981.78 748.908 974.451 755.936C971.841 758.42 968.426 759.884 964.827 760.062C960.231 760.303 956.473 759.788 953.648 758.526C952.925 758.208 952.299 757.701 951.838 757.059C951.376 756.417 951.095 755.663 951.023 754.876C950.937 754.076 951.067 753.268 951.399 752.535C951.731 751.802 952.253 751.172 952.911 750.709L989.951 724.354L1005.68 730.648L1009.35 734.318C1009.75 734.716 1010.05 735.2 1010.23 735.733C1010.41 736.266 1010.46 736.833 1010.38 737.389C1010.31 737.946 1010.1 738.477 1009.78 738.941C1009.47 739.404 1009.04 739.788 1008.55 740.062Z" fill="#E6E6E6"/>
<path d="M1056.62 318.247L1162.49 317.267C1162.22 301.846 1158.64 286.703 1150.79 273.153C1145.64 264.254 1145.75 254.568 1146.99 246.409C1148.91 233.817 1144.46 220.933 1134.56 212.917C1126.99 206.781 1117.45 203.622 1107.72 204.036L1105.66 204.122C1098.96 204.4 1092.44 206.356 1086.7 209.81C1080.96 213.265 1076.17 218.107 1072.79 223.892C1069.35 230.067 1067.96 237.177 1068.83 244.192C1069.5 250.794 1067.89 257.462 1064.14 264.194C1057.66 278.977 1056.25 297.893 1056.62 318.247Z" fill="#2F2E41"/>
<path d="M985.782 725.729L1006.56 731.149L1107.74 510.714L1101.42 725.729H1122.2C1144.4 624.57 1184.49 507.822 1166.47 470.963L1058.96 464.639L985.782 725.729Z" fill="#6C63FF"/>
<path d="M1108.65 281.244C1093.18 281.244 1080.64 268.705 1080.64 253.238C1080.64 237.77 1093.18 225.231 1108.65 225.231C1124.12 225.231 1136.65 237.77 1136.65 253.238C1136.65 268.705 1124.12 281.244 1108.65 281.244Z" fill="#FFB9B9"/>
<path d="M1084.26 304.733L1130.33 302.023C1125.81 291.659 1124.01 281.679 1125.81 272.21H1091.48C1091.56 279.48 1087.94 292.057 1084.26 304.733Z" fill="#FFB9B9"/>
<path d="M1055.35 472.77L1156.53 479.998L1146.14 300.668L1128.52 295.699L1108.65 300.216L1088.77 290.278L1076.12 294.796L1055.35 472.77Z" fill="#6C63FF"/>
<path d="M1139.36 601.96L1208.48 586.15C1187.93 518.002 1150.9 362.098 1162.85 306.54L1126.72 290.278L1139.36 601.96Z" fill="#E6E6E6"/>
<path d="M1172.79 405.013L1198.99 388.751L1176.65 323.312C1174.15 316.559 1169.38 310.89 1163.15 307.284L1155.63 302.926L1160.14 368.876L1172.79 405.013Z" fill="#E6E6E6"/>
<path d="M995.268 587.053C1017.08 599.673 1071.61 606.708 1095.55 597.894C1097.31 536.321 1100.76 362.155 1089.68 288.471L1049.92 304.733L1053.54 353.518C1072.54 395.251 1017.36 540.607 995.268 587.053Z" fill="#E6E6E6"/>
<path d="M998.43 396.883L1022.82 388.752L1055.35 351.711L1049.92 304.733L995.72 380.621L998.43 396.883Z" fill="#E6E6E6"/>
<path d="M1074.88 432.046C1074.48 433.798 1073.4 435.32 1071.88 436.278C1070.36 437.236 1068.52 437.553 1066.77 437.159L1046.06 432.47L1049.06 419.253L1069.76 423.941C1071.52 424.338 1073.04 425.415 1074 426.935C1074.96 428.455 1075.27 430.294 1074.88 432.046Z" fill="#FFB9B9"/>
<path d="M1084.26 246.01C1099.81 239.614 1115.17 239.151 1130.33 245.107L1136.65 222.521H1078.83L1084.26 246.01Z" fill="#2F2E41"/>
<path d="M1056.25 416.758L1044.5 438.44C1024.75 432.93 1007.63 415.561 991.202 395.075L995.719 380.621L1023.73 387.848L1056.25 416.758Z" fill="#E6E6E6"/>
<path d="M1064.83 372.038H1068.45C1068.45 320.927 1078.97 285.309 1089.22 285.309L1090.13 281.695C1080.93 281.695 1075.07 296.519 1071.77 308.956C1067.29 325.815 1064.83 348.218 1064.83 372.038Z" fill="#3F3D56"/>
<path d="M1147.95 359.39H1151.56C1151.56 312.581 1140.96 283.502 1125.36 283.502L1126.26 287.116C1137.06 287.116 1147.95 309.464 1147.95 359.39Z" fill="#3F3D56"/>
<path d="M1066.64 381.976C1061.65 381.976 1057.6 377.931 1057.6 372.941C1057.6 367.952 1061.65 363.907 1066.64 363.907C1071.63 363.907 1075.67 367.952 1075.67 372.941C1075.67 377.931 1071.63 381.976 1066.64 381.976Z" fill="#3F3D56"/>
<path d="M1162.4 381.072H1166.02C1166.02 368.12 1158.72 357.583 1149.75 357.583V361.197C1156.73 361.197 1162.4 370.113 1162.4 381.072Z" fill="#3F3D56"/>
<path d="M1133.49 381.072H1137.11C1137.11 370.113 1142.78 361.197 1149.75 361.197V357.583C1140.79 357.583 1133.49 368.12 1133.49 381.072Z" fill="#3F3D56"/>
<path d="M1135.3 385.589C1133.3 385.589 1131.68 383.971 1131.68 381.976C1131.68 379.98 1133.3 378.362 1135.3 378.362C1137.29 378.362 1138.91 379.98 1138.91 381.976C1138.91 383.971 1137.29 385.589 1135.3 385.589Z" fill="#3F3D56"/>
<path d="M1164.21 385.589C1162.21 385.589 1160.59 383.971 1160.59 381.976C1160.59 379.98 1162.21 378.362 1164.21 378.362C1166.2 378.362 1167.82 379.98 1167.82 381.976C1167.82 383.971 1166.2 385.589 1164.21 385.589Z" fill="#3F3D56"/>
<path d="M1209.38 348.746L1186.83 352.772L1135.3 426.048L1162.68 419.606L1209.38 348.746Z" fill="#6C63FF"/>
<path d="M1213.38 347.848C1213.72 347.854 1214.06 347.951 1214.35 348.13C1214.64 348.31 1214.88 348.565 1215.04 348.868C1215.21 349.172 1215.28 349.513 1215.27 349.857C1215.25 350.2 1215.14 350.532 1214.95 350.819L1166.78 423.907C1166.51 424.316 1166.1 424.606 1165.62 424.718L1143.21 429.991C1142.83 430.08 1142.43 430.052 1142.07 429.91C1141.71 429.769 1141.4 429.521 1141.18 429.2C1140.97 428.878 1140.85 428.498 1140.86 428.11C1140.86 427.722 1140.98 427.344 1141.2 427.026L1194.09 351.824C1194.24 351.619 1194.42 351.445 1194.63 351.31C1194.84 351.176 1195.08 351.085 1195.32 351.041L1213.02 347.881C1213.14 347.86 1213.26 347.849 1213.38 347.848Z" fill="#3F3D56"/>
<path d="M1183.33 400.105L1181.99 413.591L1160.86 411.494C1159.08 411.316 1157.43 410.435 1156.29 409.046C1155.15 407.656 1154.61 405.87 1154.79 404.082C1154.97 402.294 1155.85 400.649 1157.24 399.51C1158.63 398.371 1160.41 397.831 1162.2 398.008L1183.33 400.105Z" fill="#FFB9B9"/>
<path d="M1201.7 398.543C1201.67 403.142 1199.82 407.541 1196.56 410.784C1193.3 414.026 1188.89 415.849 1184.29 415.854H1180.82L1178.29 394.778L1199.23 387.24L1201.7 398.543Z" fill="#E6E6E6"/>
<path d="M935.387 147H935.123C924.625 147 915.342 152.566 910.002 160.78C904.662 152.566 895.378 147 884.881 147H884.617C876.739 147.075 869.209 150.263 863.663 155.87C858.118 161.478 855.004 169.052 855 176.947C855 186.75 859.285 200.661 867.64 212.107C883.558 233.918 910.002 253 910.002 253C910.002 253 936.446 233.921 952.36 212.107C960.719 200.661 965 186.75 965 176.947C964.996 169.053 961.883 161.479 956.338 155.872C950.793 150.264 943.264 147.076 935.387 147ZM931.612 213.785C930.416 213.781 929.25 213.414 928.266 212.733C927.283 212.053 926.527 211.09 926.099 209.971H919.824C919.41 209.969 919.008 209.837 918.673 209.594C918.338 209.351 918.088 209.01 917.956 208.617L916.028 202.797L909.928 224.157C909.809 224.568 909.56 224.929 909.219 225.187C908.878 225.444 908.462 225.584 908.035 225.584H907.912C907.466 225.563 907.042 225.389 906.709 225.091C906.376 224.793 906.155 224.39 906.083 223.949L899.796 186.059L895.202 208.48C895.097 208.906 894.852 209.284 894.507 209.554C894.162 209.825 893.737 209.971 893.299 209.971H884.459C884.194 209.982 883.929 209.94 883.681 209.846C883.433 209.752 883.206 209.609 883.015 209.425C882.823 209.241 882.671 209.02 882.567 208.776C882.463 208.531 882.409 208.268 882.409 208.002C882.409 207.736 882.463 207.473 882.567 207.229C882.671 206.984 882.823 206.764 883.015 206.58C883.206 206.396 883.433 206.253 883.681 206.159C883.929 206.065 884.194 206.022 884.459 206.033H891.751L898.259 175.889C898.366 175.444 898.624 175.049 898.989 174.773C899.354 174.497 899.804 174.356 900.261 174.375C900.718 174.394 901.154 174.572 901.494 174.878C901.835 175.183 902.059 175.598 902.129 176.051L908.549 214.702L914.016 195.592C914.129 195.189 914.37 194.834 914.702 194.58C915.033 194.326 915.438 194.186 915.855 194.182H915.894C916.308 194.182 916.71 194.313 917.045 194.556C917.38 194.799 917.63 195.142 917.759 195.535L921.245 206.044H926.022C926.362 205.01 926.98 204.09 927.808 203.386C928.637 202.681 929.643 202.22 930.717 202.053C931.79 201.886 932.889 202.019 933.892 202.438C934.894 202.857 935.762 203.546 936.399 204.428C937.036 205.309 937.417 206.351 937.501 207.436C937.585 208.521 937.367 209.609 936.873 210.578C936.379 211.548 935.627 212.362 934.701 212.93C933.774 213.499 932.709 213.799 931.623 213.799L931.612 213.785Z" fill="#DDD8FC"/>
<path d="M468.437 164.896C483.061 164.896 494.916 153.055 494.916 138.448C494.916 123.841 483.061 112 468.437 112C453.813 112 441.958 123.841 441.958 138.448C441.958 153.055 453.813 164.896 468.437 164.896Z" fill="#DDD8FC"/>
<path d="M533.105 134.505C532.358 132.06 530.911 129.885 528.943 128.25C526.975 126.615 524.571 125.591 522.027 125.303C521.968 125.298 521.908 125.298 521.849 125.303C521.778 125.281 521.705 125.264 521.631 125.253C512.765 124.104 502.907 126.898 496.273 132.98C493.809 135.202 491.84 137.915 490.491 140.944C489.261 139.266 487.64 137.913 485.768 137.001C483.897 136.09 481.831 135.648 479.75 135.714C477.067 135.891 474.503 136.891 472.409 138.577C470.315 140.262 468.792 142.552 468.048 145.134C467.967 145.449 467.989 145.782 468.112 146.084C468.235 146.385 468.452 146.639 468.732 146.808C469.529 147.489 470.477 147.971 471.498 148.214C473.69 148.679 475.902 149.106 478.113 149.492C482.437 150.245 486.784 150.856 491.154 151.325C494.04 151.632 496.932 151.876 499.83 152.057C505.82 152.434 511.839 152.523 517.84 152.334C520.815 152.235 523.671 152.136 526.388 150.828C528.368 149.856 530.06 148.384 531.297 146.559C532.462 144.804 533.227 142.815 533.54 140.733C533.852 138.65 533.703 136.524 533.105 134.505Z" fill="#E6E6E6"/>
<path d="M452.666 158.765C452.616 157.657 452.429 156.559 452.111 155.496C451.36 153.051 449.911 150.877 447.942 149.242C445.972 147.607 443.567 146.583 441.023 146.294C440.967 146.289 440.911 146.289 440.855 146.294C440.78 146.272 440.704 146.256 440.627 146.244C435.72 145.644 430.74 146.155 426.058 147.74C418.858 150.147 412.541 155 409.496 161.932C408.265 160.253 406.643 158.899 404.769 157.988C402.896 157.076 400.829 156.635 398.746 156.702C396.062 156.879 393.499 157.879 391.405 159.565C389.31 161.25 387.788 163.54 387.044 166.122C386.967 166.437 386.991 166.769 387.114 167.069C387.237 167.37 387.451 167.624 387.727 167.796C388.526 168.475 389.474 168.957 390.494 169.202C392.696 169.667 394.897 170.094 397.12 170.48C401.444 171.233 405.788 171.844 410.152 172.313C419.017 173.263 427.937 173.601 436.849 173.323C439.814 173.224 442.68 173.125 445.398 171.817C447.375 170.844 449.064 169.373 450.297 167.548C452.035 164.96 452.869 161.871 452.667 158.762L452.666 158.765Z" fill="#E6E6E6"/>
<path d="M327.423 162.533L334.755 171.767C335.688 172.942 337.688 171.67 337.241 170.321C336.327 167.563 339.482 166.026 341.66 165.572C344.549 164.969 347.448 165.067 350.189 163.827C351.931 163.039 350.42 160.477 348.687 161.26C345.48 162.711 341.74 162.046 338.493 163.457C335.59 164.719 333.296 167.865 334.371 171.11L336.857 169.664L329.525 160.431C329.245 160.155 328.867 160 328.474 160C328.08 160 327.702 160.155 327.422 160.431C327.151 160.714 327 161.09 327 161.481C327 161.873 327.151 162.249 327.422 162.532L327.423 162.533Z" fill="#3F3D56"/>
<path d="M668.423 79.5329L675.755 88.7667C676.688 89.9416 678.688 88.6698 678.241 87.3208C677.327 84.5629 680.482 83.0264 682.66 82.5719C685.549 81.9694 688.448 82.067 691.189 80.8266C692.931 80.0385 691.42 77.4771 689.687 78.2604C686.48 79.711 682.74 79.0464 679.493 80.4574C676.59 81.719 674.296 84.8645 675.371 88.1103L677.857 86.6645L670.525 77.4307C670.245 77.1547 669.867 77 669.474 77C669.08 77 668.702 77.1547 668.422 77.4307C668.151 77.7136 668 78.09 668 78.4814C668 78.8729 668.151 79.2493 668.422 79.5322L668.423 79.5329Z" fill="#3F3D56"/>
<path d="M425.423 67.5332L432.755 76.767C433.689 77.942 435.689 76.6701 435.242 75.3212C434.328 72.5633 437.483 71.0267 439.661 70.5723C442.549 69.9698 445.449 70.0674 448.19 68.8269C449.931 68.0388 448.421 65.4774 446.687 66.2607C443.481 67.7113 439.741 67.0467 436.494 68.4578C433.591 69.7194 431.296 72.8649 432.372 76.1106L434.858 74.6648L427.526 65.431C427.246 65.1548 426.868 65 426.474 65C426.08 65 425.702 65.1548 425.422 65.431C425.151 65.7139 425 66.0903 425 66.4818C425 66.8733 425.151 67.2497 425.422 67.5326L425.423 67.5332Z" fill="#3F3D56"/>
</g>
<defs>
<clipPath id="clip0_1_3">
<rect width="1280" height="832" fill="white"/>
</clipPath>
</defs>
</svg>
